<?xml version="1.0" encoding="UTF-8"?>
<svg id="Layer_2" data-name="Layer 2" xmlns="http://www.w3.org/2000/svg" viewBox="0 0 238.67 59.97">
  <defs>
    <style>
      .cls-1 {
        fill: #fff;
      }
    </style>
  </defs>
  <g id="Layer_1-2" data-name="Layer 1">
    <path class="cls-1" d="M112.35,43.77h-24.57l-5.13,15.12h-8.55L93.81,4.89h12.78l19.71,54h-8.82l-5.13-15.12ZM89.67,38.01h20.7l-2.43-7.2c-2.16-6.3-4.32-13.77-5.76-19.53h-4.05c-1.71,5.94-3.87,13.14-6.03,19.53l-2.43,7.2Z"/>
    <path class="cls-1" d="M151.93,37.47l10.89-14.4,3.33-4.41v-1.8h-8.46l-11.97,17.91h-7.65V0h-7.83v58.89h7.83v-18.18h7.92l13.32,18.18h8.28v-1.8l-15.66-19.62Z"/>
    <path class="cls-1" d="M195.31,52.23c-4.31.77-4.59.63-6.93.63-4.59,0-6.48-2.43-6.48-7.2v-22.59h13.41v-6.21h-13.41V4.89h-7.74v11.97h-16.29v6.21h16.29v23.31c0,7.83,3.87,13.59,12.6,13.59,3.87,0,5.58-.18,8.55-1.08v-6.66Z"/>
    <path class="cls-1" d="M197.81,38.19c0-14.04,8.05-22.41,21.34-22.41,5.55,0,11.38,1.46,15.16,5.78,4.32,4.94,4.58,11.88,4.28,18.1,0,.05,0,.12-.05.15-.04.03-.09.03-.14.03-3.74.07-7.48.01-11.23.01l-14.68.03c-2.18,0-4.36,0-6.54.01.47,9,4.77,13.86,13.38,13.86,7.86,0,10.02-3.52,11.42-8.02h7.56c-2.06,7.65-7.56,14.14-19.07,14.14-13.48,0-21.43-7.65-21.43-21.69ZM205.95,34.77h24.8c-.19-8.64-3.56-13.23-11.89-13.23-7.77,0-12.07,4.32-12.92,13.23Z"/>
    <polygon class="cls-1" points="56.44 20.33 56.44 43.44 31.12 43.44 46.58 20.33 25.32 20.33 25.32 4.89 46.57 4.89 56.44 20.33"/>
    <polygon class="cls-1" points="31.12 43.44 31.12 58.88 9.87 58.88 0 43.44 0 20.33 25.32 20.33 9.87 43.44 31.12 43.44"/>
  </g>
</svg>